<svg xmlns="http://www.w3.org/2000/svg" viewBox="0 0 32 32">
  <g fill="white" transform="translate(0,32) scale(0.007273,-0.007407)" stroke="none">
    <path d="M1610 4188 c-68 -19 -72 -39 -34 -158 13 -42 18 -101 21 -256 l5
-200 -112 -52 c-120 -57 -260 -107 -328 -118 -27 -4 -58 -2 -82 6 -47 16 -90
7 -90 -19 0 -10 25 -52 57 -92 169 -220 301 -329 399 -329 21 0 34 -5 34 -12
0 -24 -59 -116 -87 -136 -40 -28 -972 -331 -1068 -346 -60 -10 -136 -56 -160
-96 -18 -31 -20 -49 -17 -170 1 -74 7 -147 13 -162 23 -58 74 -43 249 71 182
120 625 330 647 307 4 -3 -13 -66 -36 -139 -77 -238 -81 -257 -81 -350 0 -112
19 -188 76 -303 80 -159 117 -182 198 -120 65 50 226 114 226 90 0 -10 -106
-141 -154 -192 -49 -52 -84 -72 -126 -72 -49 0 -64 -47 -54 -169 8 -115 16
-147 46 -178 51 -54 134 -20 240 99 230 258 431 437 491 438 67 1 -71 -213
-237 -367 -115 -106 -234 -190 -323 -227 -131 -55 -324 -117 -381 -123 -45 -5
-56 -3 -73 16 -11 11 -26 21 -33 21 -28 0 -141 -65 -182 -105 -51 -48 -56 -82
-25 -143 40 -77 118 -130 205 -139 78 -8 147 11 296 82 344 162 662 228 1025
209 94 -4 211 -8 262 -9 87 0 93 1 121 28 44 42 57 100 46 205 -13 126 -10
401 5 517 7 55 26 174 43 264 16 93 27 175 23 190 l-7 26 -13 -26 c-21 -40
-104 -285 -125 -369 -49 -201 -147 -467 -179 -487 -18 -11 -379 -39 -388 -30
-2 2 18 21 44 42 27 22 71 62 98 90 28 29 59 58 70 66 45 31 65 70 65 123 -1
72 -22 104 -125 186 -49 40 -92 74 -94 76 -2 2 27 36 64 75 129 138 135 217
20 284 -16 10 -8 22 69 103 48 50 118 111 156 136 77 51 97 88 86 159 -19 114
-136 200 -293 215 -108 10 -150 2 -203 -38 -25 -19 -88 -55 -140 -79 -228
-106 -361 -170 -419 -204 -34 -21 -64 -37 -66 -37 -3 0 -11 13 -20 30 -18 36
-20 150 -2 172 13 17 133 58 387 131 284 82 575 148 824 186 68 11 134 25 145
31 33 17 28 75 -12 140 -46 78 -63 84 -247 84 -140 1 -166 -2 -268 -28 -132
-34 -145 -31 -122 35 15 40 18 42 117 79 179 67 283 133 309 197 13 30 12 38
-12 95 -56 133 -122 195 -239 226 -58 15 -65 19 -60 37 68 234 21 376 -154
464 -107 55 -226 73 -311 49z m134 -2034 c31 -12 15 -43 -56 -110 -130 -120
-269 -214 -355 -239 -23 -6 -23 -6 -23 104 0 89 3 111 14 111 27 0 192 58 281
99 91 41 111 46 139 35z M3305 3884 c-65 -36 -91 -71 -126 -173 -17 -49 -59
-237 -59 -263 0 -28 32 21 56 85 61 163 133 267 186 267 23 0 95 -71 109 -108
19 -50 10 -88 -38 -158 -107 -158 -206 -278 -349 -422 -213 -214 -248 -287
-247 -507 2 -139 17 -194 55 -195 4 0 36 26 72 58 63 58 114 82 172 82 16 0
61 12 99 26 86 31 286 73 320 67 32 -7 39 -30 19 -62 -105 -161 -426 -469
-539 -517 -40 -17 -63 -43 -71 -83 -8 -38 14 -401 27 -452 22 -88 59 -78 199
56 170 162 295 235 409 237 37 1 96 -17 119 -37 9 -8 -51 -115 -120 -214 -477
-679 -917 -1108 -1339 -1305 -82 -38 -89 -44 -73 -57 25 -21 225 -18 334 5
346 73 715 281 999 565 229 228 660 680 673 706 26 51 31 108 14 177 -14 56
-22 69 -78 121 -135 125 -273 213 -370 237 -35 9 -46 16 -40 26 10 18 196 227
254 286 25 26 52 64 58 84 51 152 -143 389 -367 450 -66 18 -92 16 -225 -12
-17 -4 -28 -2 -28 4 0 11 134 170 275 325 39 43 103 106 144 139 141 118 142
207 3 346 -164 164 -426 271 -527 216z"/>
  </g>
</svg>
